<?xml version="1.0" encoding="UTF-8" standalone="no"?>
<!DOCTYPE svg PUBLIC "-//W3C//DTD SVG 1.1//EN"
 "http://www.w3.org/Graphics/SVG/1.1/DTD/svg11.dtd">
<!-- Generated by graphviz version 12.1.2 (20240928.0832)
 -->
<!-- Title: dependency&#45;cruiser output Pages: 1 -->
<svg width="645pt" height="1378pt"
 viewBox="0.00 0.00 644.62 1378.00" xmlns="http://www.w3.org/2000/svg" xmlns:xlink="http://www.w3.org/1999/xlink">
<g id="graph0" class="graph" transform="scale(1 1) rotate(0) translate(4 1374)">
<title>dependency&#45;cruiser output</title>
<polygon fill="white" stroke="none" points="-4,4 -4,-1374 640.62,-1374 640.62,4 -4,4"/>
<g id="clust1" class="cluster">
<title>cluster_src</title>
<path fill="#ffffff" stroke="black" stroke-width="2" d="M20,-8C20,-8 616.62,-8 616.62,-8 622.62,-8 628.62,-14 628.62,-20 628.62,-20 628.62,-1350 628.62,-1350 628.62,-1356 622.62,-1362 616.62,-1362 616.62,-1362 20,-1362 20,-1362 14,-1362 8,-1356 8,-1350 8,-1350 8,-20 8,-20 8,-14 14,-8 20,-8"/>
<text text-anchor="middle" x="318.31" y="-1349.45" font-family="Helvetica,sans-Serif" font-weight="bold" font-size="9.00">src</text>
</g>
<g id="clust2" class="cluster">
<title>cluster_src/components</title>
<path fill="#ffffff" stroke="black" stroke-width="2" d="M212.25,-678C212.25,-678 608.62,-678 608.62,-678 614.62,-678 620.62,-684 620.62,-690 620.62,-690 620.62,-1070 620.62,-1070 620.62,-1076 614.62,-1082 608.62,-1082 608.62,-1082 212.25,-1082 212.25,-1082 206.25,-1082 200.25,-1076 200.25,-1070 200.25,-1070 200.25,-690 200.25,-690 200.25,-684 206.25,-678 212.25,-678"/>
<text text-anchor="middle" x="410.44" y="-1069.45" font-family="Helvetica,sans-Serif" font-weight="bold" font-size="9.00">components</text>
</g>
<g id="clust3" class="cluster">
<title>cluster_src/components/animation</title>
<path fill="#ffffff" stroke="black" stroke-width="2" d="M520.62,-974C520.62,-974 600.62,-974 600.62,-974 606.62,-974 612.62,-980 612.62,-986 612.62,-986 612.62,-1044 612.62,-1044 612.62,-1050 606.62,-1056 600.62,-1056 600.62,-1056 520.62,-1056 520.62,-1056 514.62,-1056 508.62,-1050 508.62,-1044 508.62,-1044 508.62,-986 508.62,-986 508.62,-980 514.62,-974 520.62,-974"/>
<text text-anchor="middle" x="560.62" y="-1043.45" font-family="Helvetica,sans-Serif" font-weight="bold" font-size="9.00">animation</text>
</g>
<g id="clust4" class="cluster">
<title>cluster_src/components/core</title>
<path fill="#ffffff" stroke="black" stroke-width="2" d="M427.38,-712C427.38,-712 481.88,-712 481.88,-712 487.88,-712 493.88,-718 493.88,-724 493.88,-724 493.88,-812 493.88,-812 493.88,-818 487.88,-824 481.88,-824 481.88,-824 427.38,-824 427.38,-824 421.38,-824 415.38,-818 415.38,-812 415.38,-812 415.38,-724 415.38,-724 415.38,-718 421.38,-712 427.38,-712"/>
<text text-anchor="middle" x="454.62" y="-811.45" font-family="Helvetica,sans-Serif" font-weight="bold" font-size="9.00">core</text>
</g>
<g id="clust5" class="cluster">
<title>cluster_src/components/illustrations</title>
<path fill="#ffffff" stroke="black" stroke-width="2" d="M224.25,-768C224.25,-768 290,-768 290,-768 296,-768 302,-774 302,-780 302,-780 302,-838 302,-838 302,-844 296,-850 290,-850 290,-850 224.25,-850 224.25,-850 218.25,-850 212.25,-844 212.25,-838 212.25,-838 212.25,-780 212.25,-780 212.25,-774 218.25,-768 224.25,-768"/>
<text text-anchor="middle" x="257.12" y="-837.45" font-family="Helvetica,sans-Serif" font-weight="bold" font-size="9.00">illustrations</text>
</g>
<g id="clust6" class="cluster">
<title>cluster_src/components/layout</title>
<path fill="#ffffff" stroke="black" stroke-width="2" d="M233.62,-858C233.62,-858 488.62,-858 488.62,-858 494.62,-858 500.62,-864 500.62,-870 500.62,-870 500.62,-928 500.62,-928 500.62,-934 494.62,-940 488.62,-940 488.62,-940 233.62,-940 233.62,-940 227.62,-940 221.62,-934 221.62,-928 221.62,-928 221.62,-870 221.62,-870 221.62,-864 227.62,-858 233.62,-858"/>
<text text-anchor="middle" x="361.12" y="-927.45" font-family="Helvetica,sans-Serif" font-weight="bold" font-size="9.00">layout</text>
</g>
<g id="clust7" class="cluster">
<title>cluster_src/components/logos</title>
<path fill="#ffffff" stroke="black" stroke-width="2" d="M227.25,-948C227.25,-948 287,-948 287,-948 293,-948 299,-954 299,-960 299,-960 299,-988 299,-988 299,-994 293,-1000 287,-1000 287,-1000 227.25,-1000 227.25,-1000 221.25,-1000 215.25,-994 215.25,-988 215.25,-988 215.25,-960 215.25,-960 215.25,-954 221.25,-948 227.25,-948"/>
<text text-anchor="middle" x="257.12" y="-987.45" font-family="Helvetica,sans-Serif" font-weight="bold" font-size="9.00">logos</text>
</g>
<g id="clust8" class="cluster">
<title>cluster_src/pages</title>
<path fill="#ffffff" stroke="black" stroke-width="2" d="M28,-16C28,-16 290.75,-16 290.75,-16 296.75,-16 302.75,-22 302.75,-28 302.75,-28 302.75,-566 302.75,-566 302.75,-572 296.75,-578 290.75,-578 290.75,-578 28,-578 28,-578 22,-578 16,-572 16,-566 16,-566 16,-28 16,-28 16,-22 22,-16 28,-16"/>
<text text-anchor="middle" x="159.38" y="-565.45" font-family="Helvetica,sans-Serif" font-weight="bold" font-size="9.00">pages</text>
</g>
<g id="clust9" class="cluster">
<title>cluster_src/styles</title>
<path fill="#ffffff" stroke="black" stroke-width="2" d="M228.75,-586C228.75,-586 285.5,-586 285.5,-586 291.5,-586 297.5,-592 297.5,-598 297.5,-598 297.5,-626 297.5,-626 297.5,-632 291.5,-638 285.5,-638 285.5,-638 228.75,-638 228.75,-638 222.75,-638 216.75,-632 216.75,-626 216.75,-626 216.75,-598 216.75,-598 216.75,-592 222.75,-586 228.75,-586"/>
<text text-anchor="middle" x="257.12" y="-625.45" font-family="Helvetica,sans-Serif" font-weight="bold" font-size="9.00">styles</text>
</g>
<g id="clust10" class="cluster">
<title>cluster_src/types</title>
<path fill="#ffffff" stroke="black" stroke-width="2" d="M533,-558C533,-558 588.25,-558 588.25,-558 594.25,-558 600.25,-564 600.25,-570 600.25,-570 600.25,-658 600.25,-658 600.25,-664 594.25,-670 588.25,-670 588.25,-670 533,-670 533,-670 527,-670 521,-664 521,-658 521,-658 521,-570 521,-570 521,-564 527,-558 533,-558"/>
<text text-anchor="middle" x="560.62" y="-657.45" font-family="Helvetica,sans-Serif" font-weight="bold" font-size="9.00">types</text>
</g>
<!-- src/components/Hero.tsx -->
<g id="node1" class="node">
<title>src/components/Hero.tsx</title>
<g id="a_node1"><a xlink:href="src/components/Hero.tsx" xlink:title="Hero.tsx">
<path fill="#bbfeff" stroke="black" d="M475.71,-703.88C475.71,-703.88 433.54,-703.88 433.54,-703.88 430.58,-703.88 427.62,-700.92 427.62,-697.96 427.62,-697.96 427.62,-692.04 427.62,-692.04 427.62,-689.08 430.58,-686.12 433.54,-686.12 433.54,-686.12 475.71,-686.12 475.71,-686.12 478.67,-686.12 481.62,-689.08 481.62,-692.04 481.62,-692.04 481.62,-697.96 481.62,-697.96 481.62,-700.92 478.67,-703.88 475.71,-703.88"/>
<text text-anchor="start" x="436.25" y="-691.33" font-family="Helvetica,sans-Serif" font-size="9.00">Hero.tsx</text>
</a>
</g>
</g>
<!-- src/components/animation/FadeIn.tsx -->
<g id="node2" class="node">
<title>src/components/animation/FadeIn.tsx</title>
<g id="a_node2"><a xlink:href="src/components/animation/FadeIn.tsx" xlink:title="FadeIn.tsx">
<path fill="#bbfeff" stroke="black" d="M584.83,-999.88C584.83,-999.88 536.42,-999.88 536.42,-999.88 533.46,-999.88 530.5,-996.92 530.5,-993.96 530.5,-993.96 530.5,-988.04 530.5,-988.04 530.5,-985.08 533.46,-982.12 536.42,-982.12 536.42,-982.12 584.83,-982.12 584.83,-982.12 587.79,-982.12 590.75,-985.08 590.75,-988.04 590.75,-988.04 590.75,-993.96 590.75,-993.96 590.75,-996.92 587.79,-999.88 584.83,-999.88"/>
<text text-anchor="start" x="538.5" y="-987.33" font-family="Helvetica,sans-Serif" font-size="9.00">FadeIn.tsx</text>
</a>
</g>
</g>
<!-- src/components/Hero.tsx&#45;&gt;src/components/animation/FadeIn.tsx -->
<g id="edge1" class="edge">
<title>src/components/Hero.tsx&#45;&gt;src/components/animation/FadeIn.tsx</title>
<path fill="none" stroke="#000000" stroke-width="2" stroke-opacity="0.200000" d="M482.07,-698.29C488.95,-700.35 495.78,-703.67 500.62,-709 536.41,-748.37 553.46,-917.03 558.2,-972.93"/>
<polygon fill="#000000" fill-opacity="0.200000" stroke="#000000" stroke-width="2" stroke-opacity="0.200000" points="556.1,-972.9 558.68,-978.71 560.28,-972.55 556.1,-972.9"/>
</g>
<!-- src/pages/hultprize.tsx -->
<g id="node3" class="node">
<title>src/pages/hultprize.tsx</title>
<g id="a_node3"><a xlink:href="src/pages/hultprize.tsx" xlink:title="hultprize.tsx">
<path fill="#bbfeff" stroke="black" d="M136.46,-161.88C136.46,-161.88 79.79,-161.88 79.79,-161.88 76.83,-161.88 73.88,-158.92 73.88,-155.96 73.88,-155.96 73.88,-150.04 73.88,-150.04 73.88,-147.08 76.83,-144.12 79.79,-144.12 79.79,-144.12 136.46,-144.12 136.46,-144.12 139.42,-144.12 142.38,-147.08 142.38,-150.04 142.38,-150.04 142.38,-155.96 142.38,-155.96 142.38,-158.92 139.42,-161.88 136.46,-161.88"/>
<text text-anchor="start" x="81.88" y="-149.32" font-family="Helvetica,sans-Serif" font-size="9.00">hultprize.tsx</text>
</a>
</g>
</g>
<!-- src/components/Hero.tsx&#45;&gt;src/pages/hultprize.tsx -->
<g id="edge2" class="edge">
<title>src/components/Hero.tsx&#45;&gt;src/pages/hultprize.tsx</title>
<path fill="none" stroke="#000000" stroke-width="2" stroke-opacity="0.200000" d="M450.85,-685.66C444.93,-667.7 429.22,-628.71 400.25,-613 368.51,-595.79 349.44,-593.57 319,-613 307.43,-620.38 317.57,-633.62 306,-641 286.19,-653.64 217.01,-657.48 200.25,-641 181.51,-622.57 209.27,-188.02 192.25,-168 182.32,-156.33 166.65,-151.68 151.58,-150.28"/>
<polygon fill="#000000" fill-opacity="0.200000" stroke="#000000" stroke-width="2" stroke-opacity="0.200000" points="151.95,-148.19 145.84,-149.96 151.72,-152.39 151.95,-148.19"/>
</g>
<!-- src/pages/hultprize.tsx&#45;&gt;src/components/animation/FadeIn.tsx -->
<g id="edge40" class="edge">
<title>src/pages/hultprize.tsx&#45;&gt;src/components/animation/FadeIn.tsx</title>
<path fill="none" stroke="#000000" stroke-width="2" stroke-opacity="0.200000" d="M142.87,-149.76C160.34,-150.08 180.43,-153.99 192.25,-168 208.46,-187.22 182.4,-1055.3 200.25,-1073 212.1,-1084.75 488.15,-1084.08 500.62,-1073 511.84,-1063.05 498.94,-1017.45 508.62,-1006 512.18,-1001.79 516.86,-998.73 521.93,-996.51"/>
<polygon fill="#000000" fill-opacity="0.200000" stroke="#000000" stroke-width="2" stroke-opacity="0.200000" points="522.29,-998.61 527.27,-994.66 520.92,-994.64 522.29,-998.61"/>
</g>
<!-- src/components/core/Header.tsx -->
<g id="node10" class="node">
<title>src/components/core/Header.tsx</title>
<g id="a_node10"><a xlink:href="src/components/core/Header.tsx" xlink:title="Header.tsx">
<path fill="#bbfeff" stroke="black" d="M479.96,-737.88C479.96,-737.88 429.29,-737.88 429.29,-737.88 426.33,-737.88 423.38,-734.92 423.38,-731.96 423.38,-731.96 423.38,-726.04 423.38,-726.04 423.38,-723.08 426.33,-720.12 429.29,-720.12 429.29,-720.12 479.96,-720.12 479.96,-720.12 482.92,-720.12 485.88,-723.08 485.88,-726.04 485.88,-726.04 485.88,-731.96 485.88,-731.96 485.88,-734.92 482.92,-737.88 479.96,-737.88"/>
<text text-anchor="start" x="431.38" y="-725.33" font-family="Helvetica,sans-Serif" font-size="9.00">Header.tsx</text>
</a>
</g>
</g>
<!-- src/pages/hultprize.tsx&#45;&gt;src/components/core/Header.tsx -->
<g id="edge41" class="edge">
<title>src/pages/hultprize.tsx&#45;&gt;src/components/core/Header.tsx</title>
<path fill="none" stroke="#000000" stroke-width="2" stroke-opacity="0.200000" d="M142.61,-149.98C160,-150.37 180.11,-154.27 192.25,-168 202.79,-179.92 195.91,-295.69 200.25,-311 251.14,-490.47 323.91,-509.8 400.25,-680 407.21,-695.52 401.01,-704.18 413.25,-716 414.05,-716.78 414.91,-717.51 415.8,-718.19"/>
<polygon fill="#000000" fill-opacity="0.200000" stroke="#000000" stroke-width="2" stroke-opacity="0.200000" points="414.4,-719.81 420.63,-721.09 416.56,-716.21 414.4,-719.81"/>
</g>
<!-- src/components/Loader.tsx -->
<g id="node4" class="node">
<title>src/components/Loader.tsx</title>
<g id="a_node4"><a xlink:href="src/components/Loader.tsx" xlink:title="Loader.tsx">
<path fill="#bbfeff" stroke="black" d="M281.71,-1025.88C281.71,-1025.88 232.54,-1025.88 232.54,-1025.88 229.58,-1025.88 226.62,-1022.92 226.62,-1019.96 226.62,-1019.96 226.62,-1014.04 226.62,-1014.04 226.62,-1011.08 229.58,-1008.12 232.54,-1008.12 232.54,-1008.12 281.71,-1008.12 281.71,-1008.12 284.67,-1008.12 287.62,-1011.08 287.62,-1014.04 287.62,-1014.04 287.62,-1019.96 287.62,-1019.96 287.62,-1022.92 284.67,-1025.88 281.71,-1025.88"/>
<text text-anchor="start" x="234.62" y="-1013.33" font-family="Helvetica,sans-Serif" font-size="9.00">Loader.tsx</text>
</a>
</g>
</g>
<!-- src/components/MadeBy.tsx -->
<g id="node5" class="node">
<title>src/components/MadeBy.tsx</title>
<g id="a_node5"><a xlink:href="src/components/MadeBy.tsx" xlink:title="MadeBy.tsx">
<path fill="#bbfeff" stroke="black" d="M386.83,-965.88C386.83,-965.88 332.42,-965.88 332.42,-965.88 329.46,-965.88 326.5,-962.92 326.5,-959.96 326.5,-959.96 326.5,-954.04 326.5,-954.04 326.5,-951.08 329.46,-948.12 332.42,-948.12 332.42,-948.12 386.83,-948.12 386.83,-948.12 389.79,-948.12 392.75,-951.08 392.75,-954.04 392.75,-954.04 392.75,-959.96 392.75,-959.96 392.75,-962.92 389.79,-965.88 386.83,-965.88"/>
<text text-anchor="start" x="334.5" y="-953.33" font-family="Helvetica,sans-Serif" font-size="9.00">MadeBy.tsx</text>
</a>
</g>
</g>
<!-- src/components/ModeToggle.tsx -->
<g id="node6" class="node">
<title>src/components/ModeToggle.tsx</title>
<g id="a_node6"><a xlink:href="src/components/ModeToggle.tsx" xlink:title="ModeToggle.tsx">
<path fill="#bbfeff" stroke="black" d="M490.08,-849.88C490.08,-849.88 419.17,-849.88 419.17,-849.88 416.21,-849.88 413.25,-846.92 413.25,-843.96 413.25,-843.96 413.25,-838.04 413.25,-838.04 413.25,-835.08 416.21,-832.12 419.17,-832.12 419.17,-832.12 490.08,-832.12 490.08,-832.12 493.04,-832.12 496,-835.08 496,-838.04 496,-838.04 496,-843.96 496,-843.96 496,-846.92 493.04,-849.88 490.08,-849.88"/>
<text text-anchor="start" x="421.25" y="-837.33" font-family="Helvetica,sans-Serif" font-size="9.00">ModeToggle.tsx</text>
</a>
</g>
</g>
<!-- src/components/ScrollToBottom.tsx -->
<g id="node7" class="node">
<title>src/components/ScrollToBottom.tsx</title>
<g id="a_node7"><a xlink:href="src/components/ScrollToBottom.tsx" xlink:title="ScrollToBottom.tsx">
<path fill="#bbfeff" stroke="black" d="M300.08,-1055.88C300.08,-1055.88 214.17,-1055.88 214.17,-1055.88 211.21,-1055.88 208.25,-1052.92 208.25,-1049.96 208.25,-1049.96 208.25,-1044.04 208.25,-1044.04 208.25,-1041.08 211.21,-1038.12 214.17,-1038.12 214.17,-1038.12 300.08,-1038.12 300.08,-1038.12 303.04,-1038.12 306,-1041.08 306,-1044.04 306,-1044.04 306,-1049.96 306,-1049.96 306,-1052.92 303.04,-1055.88 300.08,-1055.88"/>
<text text-anchor="start" x="216.25" y="-1043.33" font-family="Helvetica,sans-Serif" font-size="9.00">ScrollToBottom.tsx</text>
</a>
</g>
</g>
<!-- src/components/ScrollToTop.tsx -->
<g id="node8" class="node">
<title>src/components/ScrollToTop.tsx</title>
<g id="a_node8"><a xlink:href="src/components/ScrollToTop.tsx" xlink:title="ScrollToTop.tsx">
<path fill="#bbfeff" stroke="black" d="M394.33,-995.88C394.33,-995.88 324.92,-995.88 324.92,-995.88 321.96,-995.88 319,-992.92 319,-989.96 319,-989.96 319,-984.04 319,-984.04 319,-981.08 321.96,-978.12 324.92,-978.12 324.92,-978.12 394.33,-978.12 394.33,-978.12 397.29,-978.12 400.25,-981.08 400.25,-984.04 400.25,-984.04 400.25,-989.96 400.25,-989.96 400.25,-992.92 397.29,-995.88 394.33,-995.88"/>
<text text-anchor="start" x="327" y="-983.33" font-family="Helvetica,sans-Serif" font-size="9.00">ScrollToTop.tsx</text>
</a>
</g>
</g>
<!-- src/components/animation/WinnersCard.tsx -->
<g id="node9" class="node">
<title>src/components/animation/WinnersCard.tsx</title>
<g id="a_node9"><a xlink:href="src/components/animation/WinnersCard.tsx" xlink:title="WinnersCard.tsx">
<path fill="#bbfeff" stroke="black" d="M598.71,-1029.88C598.71,-1029.88 522.54,-1029.88 522.54,-1029.88 519.58,-1029.88 516.62,-1026.92 516.62,-1023.96 516.62,-1023.96 516.62,-1018.04 516.62,-1018.04 516.62,-1015.08 519.58,-1012.12 522.54,-1012.12 522.54,-1012.12 598.71,-1012.12 598.71,-1012.12 601.67,-1012.12 604.62,-1015.08 604.62,-1018.04 604.62,-1018.04 604.62,-1023.96 604.62,-1023.96 604.62,-1026.92 601.67,-1029.88 598.71,-1029.88"/>
<text text-anchor="start" x="524.62" y="-1017.33" font-family="Helvetica,sans-Serif" font-size="9.00">WinnersCard.tsx</text>
</a>
</g>
</g>
<!-- src/types/header.d.ts -->
<g id="node11" class="node">
<title>src/types/header.d.ts</title>
<g id="a_node11"><a xlink:href="src/types/header.d.ts" xlink:title="header.d.ts">
<path fill="#ddfeff" stroke="black" d="M586.33,-583.88C586.33,-583.88 534.92,-583.88 534.92,-583.88 531.96,-583.88 529,-580.92 529,-577.96 529,-577.96 529,-572.04 529,-572.04 529,-569.08 531.96,-566.12 534.92,-566.12 534.92,-566.12 586.33,-566.12 586.33,-566.12 589.29,-566.12 592.25,-569.08 592.25,-572.04 592.25,-572.04 592.25,-577.96 592.25,-577.96 592.25,-580.92 589.29,-583.88 586.33,-583.88"/>
<text text-anchor="start" x="537" y="-571.33" font-family="Helvetica,sans-Serif" font-size="9.00">header.d.ts</text>
</a>
</g>
</g>
<!-- src/components/core/Header.tsx&#45;&gt;src/types/header.d.ts -->
<g id="edge3" class="edge">
<title>src/components/core/Header.tsx&#45;&gt;src/types/header.d.ts</title>
<path fill="none" stroke="#000000" stroke-width="2" stroke-opacity="0.200000" d="M486.27,-725.58C491.8,-723.59 496.96,-720.57 500.62,-716 518.19,-694.12 491.11,-611.92 508.62,-590 511.72,-586.12 515.77,-583.21 520.22,-581.04"/>
<polygon fill="#000000" fill-opacity="0.200000" stroke="#000000" stroke-width="2" stroke-opacity="0.200000" points="520.89,-583.03 525.75,-578.93 519.4,-579.11 520.89,-583.03"/>
</g>
<!-- src/components/core/Logo.tsx -->
<g id="node12" class="node">
<title>src/components/core/Logo.tsx</title>
<g id="a_node12"><a xlink:href="src/components/core/Logo.tsx" xlink:title="Logo.tsx">
<path fill="#bbfeff" stroke="black" d="M475.71,-797.88C475.71,-797.88 433.54,-797.88 433.54,-797.88 430.58,-797.88 427.62,-794.92 427.62,-791.96 427.62,-791.96 427.62,-786.04 427.62,-786.04 427.62,-783.08 430.58,-780.12 433.54,-780.12 433.54,-780.12 475.71,-780.12 475.71,-780.12 478.67,-780.12 481.62,-783.08 481.62,-786.04 481.62,-786.04 481.62,-791.96 481.62,-791.96 481.62,-794.92 478.67,-797.88 475.71,-797.88"/>
<text text-anchor="start" x="436.25" y="-785.33" font-family="Helvetica,sans-Serif" font-size="9.00">Logo.tsx</text>
</a>
</g>
</g>
<!-- src/components/core/Title.tsx -->
<g id="node13" class="node">
<title>src/components/core/Title.tsx</title>
<g id="a_node13"><a xlink:href="src/components/core/Title.tsx" xlink:title="Title.tsx">
<path fill="#bbfeff" stroke="black" d="M475.71,-767.88C475.71,-767.88 433.54,-767.88 433.54,-767.88 430.58,-767.88 427.62,-764.92 427.62,-761.96 427.62,-761.96 427.62,-756.04 427.62,-756.04 427.62,-753.08 430.58,-750.12 433.54,-750.12 433.54,-750.12 475.71,-750.12 475.71,-750.12 478.67,-750.12 481.62,-753.08 481.62,-756.04 481.62,-756.04 481.62,-761.96 481.62,-761.96 481.62,-764.92 478.67,-767.88 475.71,-767.88"/>
<text text-anchor="start" x="437.75" y="-755.33" font-family="Helvetica,sans-Serif" font-size="9.00">Title.tsx</text>
</a>
</g>
</g>
<!-- src/components/core/Title.tsx&#45;&gt;src/components/animation/FadeIn.tsx -->
<g id="edge4" class="edge">
<title>src/components/core/Title.tsx&#45;&gt;src/components/animation/FadeIn.tsx</title>
<path fill="none" stroke="#000000" stroke-width="2" stroke-opacity="0.200000" d="M481.9,-763.1C488.77,-765.32 495.65,-768.73 500.62,-774 554.39,-830.88 560.13,-931.75 560.09,-972.83"/>
<polygon fill="#000000" fill-opacity="0.200000" stroke="#000000" stroke-width="2" stroke-opacity="0.200000" points="557.99,-972.66 560.02,-978.69 562.19,-972.71 557.99,-972.66"/>
</g>
<!-- src/types/title.d.ts -->
<g id="node14" class="node">
<title>src/types/title.d.ts</title>
<g id="a_node14"><a xlink:href="src/types/title.d.ts" xlink:title="title.d.ts">
<path fill="#ddfeff" stroke="black" d="M581.71,-613.88C581.71,-613.88 539.54,-613.88 539.54,-613.88 536.58,-613.88 533.62,-610.92 533.62,-607.96 533.62,-607.96 533.62,-602.04 533.62,-602.04 533.62,-599.08 536.58,-596.12 539.54,-596.12 539.54,-596.12 581.71,-596.12 581.71,-596.12 584.67,-596.12 587.62,-599.08 587.62,-602.04 587.62,-602.04 587.62,-607.96 587.62,-607.96 587.62,-610.92 584.67,-613.88 581.71,-613.88"/>
<text text-anchor="start" x="543.75" y="-601.33" font-family="Helvetica,sans-Serif" font-size="9.00">title.d.ts</text>
</a>
</g>
</g>
<!-- src/components/core/Title.tsx&#45;&gt;src/types/title.d.ts -->
<g id="edge5" class="edge">
<title>src/components/core/Title.tsx&#45;&gt;src/types/title.d.ts</title>
<path fill="none" stroke="#000000" stroke-width="2" stroke-opacity="0.200000" d="M481.67,-755.81C488.89,-753.63 496,-750 500.62,-744 517.48,-722.13 491.38,-641.56 508.62,-620 512.75,-614.85 518.54,-611.4 524.76,-609.11"/>
<polygon fill="#000000" fill-opacity="0.200000" stroke="#000000" stroke-width="2" stroke-opacity="0.200000" points="525.27,-611.15 530.47,-607.49 524.12,-607.11 525.27,-611.15"/>
</g>
<!-- src/components/illustrations/CuteDog.tsx -->
<g id="node15" class="node">
<title>src/components/illustrations/CuteDog.tsx</title>
<g id="a_node15"><a xlink:href="src/components/illustrations/CuteDog.tsx" xlink:title="CuteDog.tsx">
<path fill="#bbfeff" stroke="black" d="M285.83,-823.88C285.83,-823.88 228.42,-823.88 228.42,-823.88 225.46,-823.88 222.5,-820.92 222.5,-817.96 222.5,-817.96 222.5,-812.04 222.5,-812.04 222.5,-809.08 225.46,-806.12 228.42,-806.12 228.42,-806.12 285.83,-806.12 285.83,-806.12 288.79,-806.12 291.75,-809.08 291.75,-812.04 291.75,-812.04 291.75,-817.96 291.75,-817.96 291.75,-820.92 288.79,-823.88 285.83,-823.88"/>
<text text-anchor="start" x="230.5" y="-811.33" font-family="Helvetica,sans-Serif" font-size="9.00">CuteDog.tsx</text>
</a>
</g>
</g>
<!-- src/components/illustrations/OurVision.tsx -->
<g id="node16" class="node">
<title>src/components/illustrations/OurVision.tsx</title>
<g id="a_node16"><a xlink:href="src/components/illustrations/OurVision.tsx" xlink:title="OurVision.tsx">
<path fill="#bbfeff" stroke="black" d="M288.08,-793.88C288.08,-793.88 226.17,-793.88 226.17,-793.88 223.21,-793.88 220.25,-790.92 220.25,-787.96 220.25,-787.96 220.25,-782.04 220.25,-782.04 220.25,-779.08 223.21,-776.12 226.17,-776.12 226.17,-776.12 288.08,-776.12 288.08,-776.12 291.04,-776.12 294,-779.08 294,-782.04 294,-782.04 294,-787.96 294,-787.96 294,-790.92 291.04,-793.88 288.08,-793.88"/>
<text text-anchor="start" x="228.25" y="-781.33" font-family="Helvetica,sans-Serif" font-size="9.00">OurVision.tsx</text>
</a>
</g>
</g>
<!-- src/components/layout/Footer.tsx -->
<g id="node17" class="node">
<title>src/components/layout/Footer.tsx</title>
<g id="a_node17"><a xlink:href="src/components/layout/Footer.tsx" xlink:title="Footer.tsx">
<path fill="#bbfeff" stroke="black" d="M383.08,-883.88C383.08,-883.88 336.17,-883.88 336.17,-883.88 333.21,-883.88 330.25,-880.92 330.25,-877.96 330.25,-877.96 330.25,-872.04 330.25,-872.04 330.25,-869.08 333.21,-866.12 336.17,-866.12 336.17,-866.12 383.08,-866.12 383.08,-866.12 386.04,-866.12 389,-869.08 389,-872.04 389,-872.04 389,-877.96 389,-877.96 389,-880.92 386.04,-883.88 383.08,-883.88"/>
<text text-anchor="start" x="338.25" y="-871.33" font-family="Helvetica,sans-Serif" font-size="9.00">Footer.tsx</text>
</a>
</g>
</g>
<!-- src/components/layout/Footer.tsx&#45;&gt;src/components/core/Logo.tsx -->
<g id="edge6" class="edge">
<title>src/components/layout/Footer.tsx&#45;&gt;src/components/core/Logo.tsx</title>
<path fill="none" stroke="#000000" stroke-width="2" stroke-opacity="0.200000" d="M364.76,-865.94C372.25,-850.55 389.5,-819.28 413.25,-802 415.07,-800.67 417.04,-799.48 419.09,-798.4"/>
<polygon fill="#000000" fill-opacity="0.200000" stroke="#000000" stroke-width="2" stroke-opacity="0.200000" points="419.84,-800.37 424.49,-796.03 418.15,-796.52 419.84,-800.37"/>
</g>
<!-- src/components/layout/MobileNav.tsx -->
<g id="node18" class="node">
<title>src/components/layout/MobileNav.tsx</title>
<g id="a_node18"><a xlink:href="src/components/layout/MobileNav.tsx" xlink:title="MobileNav.tsx">
<path fill="#bbfeff" stroke="black" d="M486.71,-898.88C486.71,-898.88 422.54,-898.88 422.54,-898.88 419.58,-898.88 416.62,-895.92 416.62,-892.96 416.62,-892.96 416.62,-887.04 416.62,-887.04 416.62,-884.08 419.58,-881.12 422.54,-881.12 422.54,-881.12 486.71,-881.12 486.71,-881.12 489.67,-881.12 492.62,-884.08 492.62,-887.04 492.62,-887.04 492.62,-892.96 492.62,-892.96 492.62,-895.92 489.67,-898.88 486.71,-898.88"/>
<text text-anchor="start" x="424.62" y="-886.33" font-family="Helvetica,sans-Serif" font-size="9.00">MobileNav.tsx</text>
</a>
</g>
</g>
<!-- src/types/nav.d.ts -->
<g id="node19" class="node">
<title>src/types/nav.d.ts</title>
<g id="a_node19"><a xlink:href="src/types/nav.d.ts" xlink:title="nav.d.ts">
<path fill="#ddfeff" stroke="black" d="M581.71,-643.88C581.71,-643.88 539.54,-643.88 539.54,-643.88 536.58,-643.88 533.62,-640.92 533.62,-637.96 533.62,-637.96 533.62,-632.04 533.62,-632.04 533.62,-629.08 536.58,-626.12 539.54,-626.12 539.54,-626.12 581.71,-626.12 581.71,-626.12 584.67,-626.12 587.62,-629.08 587.62,-632.04 587.62,-632.04 587.62,-637.96 587.62,-637.96 587.62,-640.92 584.67,-643.88 581.71,-643.88"/>
<text text-anchor="start" x="544.12" y="-631.33" font-family="Helvetica,sans-Serif" font-size="9.00">nav.d.ts</text>
</a>
</g>
</g>
<!-- src/components/layout/MobileNav.tsx&#45;&gt;src/types/nav.d.ts -->
<g id="edge7" class="edge">
<title>src/components/layout/MobileNav.tsx&#45;&gt;src/types/nav.d.ts</title>
<path fill="none" stroke="#000000" stroke-opacity="0.200000" d="M492.86,-882.87C495.73,-881.28 498.37,-879.35 500.62,-877 532.24,-844.03 551.85,-700.7 557.74,-651.58"/>
<polygon fill="none" stroke="#000000" stroke-opacity="0.200000" points="559.81,-652 558.42,-645.8 555.64,-651.51 559.81,-652"/>
</g>
<!-- src/components/layout/Navbar.tsx -->
<g id="node20" class="node">
<title>src/components/layout/Navbar.tsx</title>
<g id="a_node20"><a xlink:href="src/components/layout/Navbar.tsx" xlink:title="Navbar.tsx">
<path fill="#bbfeff" stroke="black" d="M384.96,-913.88C384.96,-913.88 334.29,-913.88 334.29,-913.88 331.33,-913.88 328.38,-910.92 328.38,-907.96 328.38,-907.96 328.38,-902.04 328.38,-902.04 328.38,-899.08 331.33,-896.12 334.29,-896.12 334.29,-896.12 384.96,-896.12 384.96,-896.12 387.92,-896.12 390.88,-899.08 390.88,-902.04 390.88,-902.04 390.88,-907.96 390.88,-907.96 390.88,-910.92 387.92,-913.88 384.96,-913.88"/>
<text text-anchor="start" x="336.38" y="-901.33" font-family="Helvetica,sans-Serif" font-size="9.00">Navbar.tsx</text>
</a>
</g>
</g>
<!-- src/components/layout/Navbar.tsx&#45;&gt;src/components/ModeToggle.tsx -->
<g id="edge10" class="edge">
<title>src/components/layout/Navbar.tsx&#45;&gt;src/components/ModeToggle.tsx</title>
<path fill="none" stroke="#000000" stroke-width="2" stroke-opacity="0.200000" d="M391.27,-896.56C394.57,-894.77 397.66,-892.61 400.25,-890 410.3,-879.88 403.92,-869.88 413.27,-856.94"/>
<polygon fill="#000000" fill-opacity="0.200000" stroke="#000000" stroke-width="2" stroke-opacity="0.200000" points="414.75,-858.44 417.23,-852.59 411.64,-855.61 414.75,-858.44"/>
</g>
<!-- src/components/layout/Navbar.tsx&#45;&gt;src/components/core/Logo.tsx -->
<g id="edge8" class="edge">
<title>src/components/layout/Navbar.tsx&#45;&gt;src/components/core/Logo.tsx</title>
<path fill="none" stroke="#000000" stroke-width="2" stroke-opacity="0.200000" d="M391.05,-897.5C394.56,-895.55 397.76,-893.09 400.25,-890 425.04,-859.2 387.69,-832.16 413.25,-802 414.95,-800 416.95,-798.3 419.15,-796.87"/>
<polygon fill="#000000" fill-opacity="0.200000" stroke="#000000" stroke-width="2" stroke-opacity="0.200000" points="420.01,-798.78 424.46,-794.25 418.15,-795.01 420.01,-798.78"/>
</g>
<!-- src/components/layout/Navbar.tsx&#45;&gt;src/components/layout/MobileNav.tsx -->
<g id="edge9" class="edge">
<title>src/components/layout/Navbar.tsx&#45;&gt;src/components/layout/MobileNav.tsx</title>
<path fill="none" stroke="#000000" stroke-width="2" stroke-opacity="0.200000" d="M391.33,-900.05C396.54,-899.21 402.05,-898.32 407.55,-897.43"/>
<polygon fill="#000000" fill-opacity="0.200000" stroke="#000000" stroke-width="2" stroke-opacity="0.200000" points="407.57,-899.56 413.15,-896.53 406.9,-895.41 407.57,-899.56"/>
</g>
<!-- src/components/layout/index.tsx -->
<g id="node21" class="node">
<title>src/components/layout/index.tsx</title>
<g id="a_node21"><a xlink:href="src/components/layout/index.tsx" xlink:title="index.tsx">
<path fill="#bbfeff" stroke="black" d="M278.71,-913.88C278.71,-913.88 235.54,-913.88 235.54,-913.88 232.58,-913.88 229.62,-910.92 229.62,-907.96 229.62,-907.96 229.62,-902.04 229.62,-902.04 229.62,-899.08 232.58,-896.12 235.54,-896.12 235.54,-896.12 278.71,-896.12 278.71,-896.12 281.67,-896.12 284.62,-899.08 284.62,-902.04 284.62,-902.04 284.62,-907.96 284.62,-907.96 284.62,-910.92 281.67,-913.88 278.71,-913.88"/>
<text text-anchor="start" x="237.62" y="-901.33" font-family="Helvetica,sans-Serif" font-size="9.00">index.tsx</text>
</a>
</g>
</g>
<!-- src/components/layout/index.tsx&#45;&gt;src/components/animation/FadeIn.tsx -->
<g id="edge11" class="edge">
<title>src/components/layout/index.tsx&#45;&gt;src/components/animation/FadeIn.tsx</title>
<path fill="none" stroke="#000000" stroke-width="2" stroke-opacity="0.200000" d="M285.03,-911.92C295.6,-914.56 307.84,-917.53 319,-920 354.93,-927.96 364.71,-926.42 400.25,-936 445.26,-948.14 495.95,-966.46 527.84,-978.57"/>
<polygon fill="#000000" fill-opacity="0.200000" stroke="#000000" stroke-width="2" stroke-opacity="0.200000" points="526.73,-980.4 533.09,-980.58 528.23,-976.48 526.73,-980.4"/>
</g>
<!-- src/components/layout/index.tsx&#45;&gt;src/components/MadeBy.tsx -->
<g id="edge14" class="edge">
<title>src/components/layout/index.tsx&#45;&gt;src/components/MadeBy.tsx</title>
<path fill="none" stroke="#000000" stroke-width="2" stroke-opacity="0.200000" d="M271.18,-914.33C283.2,-922.61 301.71,-934.67 319,-943 319.85,-943.41 320.72,-943.82 321.61,-944.22"/>
<polygon fill="#000000" fill-opacity="0.200000" stroke="#000000" stroke-width="2" stroke-opacity="0.200000" points="320.62,-946.08 326.96,-946.46 322.24,-942.21 320.62,-946.08"/>
</g>
<!-- src/components/layout/index.tsx&#45;&gt;src/components/ScrollToTop.tsx -->
<g id="edge15" class="edge">
<title>src/components/layout/index.tsx&#45;&gt;src/components/ScrollToTop.tsx</title>
<path fill="none" stroke="#000000" stroke-width="2" stroke-opacity="0.200000" d="M272.09,-914.2C282.47,-921.58 296.42,-932.7 306,-945 314.18,-955.51 309.18,-963 319,-972 319.3,-972.27 319.6,-972.54 319.91,-972.81"/>
<polygon fill="#000000" fill-opacity="0.200000" stroke="#000000" stroke-width="2" stroke-opacity="0.200000" points="318.38,-974.31 324.52,-975.97 320.76,-970.84 318.38,-974.31"/>
</g>
<!-- src/components/layout/index.tsx&#45;&gt;src/components/layout/Footer.tsx -->
<g id="edge12" class="edge">
<title>src/components/layout/index.tsx&#45;&gt;src/components/layout/Footer.tsx</title>
<path fill="none" stroke="#000000" stroke-width="2" stroke-opacity="0.200000" d="M285.06,-896.96C296.19,-893.64 309.29,-889.73 321.33,-886.13"/>
<polygon fill="#000000" fill-opacity="0.200000" stroke="#000000" stroke-width="2" stroke-opacity="0.200000" points="321.81,-888.18 326.96,-884.45 320.61,-884.16 321.81,-888.18"/>
</g>
<!-- src/components/layout/index.tsx&#45;&gt;src/components/layout/Navbar.tsx -->
<g id="edge13" class="edge">
<title>src/components/layout/index.tsx&#45;&gt;src/components/layout/Navbar.tsx</title>
<path fill="none" stroke="#000000" stroke-width="2" stroke-opacity="0.200000" d="M285.06,-905C295.52,-905 307.71,-905 319.13,-905"/>
<polygon fill="#000000" fill-opacity="0.200000" stroke="#000000" stroke-width="2" stroke-opacity="0.200000" points="319.04,-907.1 325.04,-905 319.04,-902.9 319.04,-907.1"/>
</g>
<!-- src/components/logos/LinkedIn.tsx -->
<g id="node22" class="node">
<title>src/components/logos/LinkedIn.tsx</title>
<g id="a_node22"><a xlink:href="src/components/logos/LinkedIn.tsx" xlink:title="LinkedIn.tsx">
<path fill="#bbfeff" stroke="black" d="M285.08,-973.88C285.08,-973.88 229.17,-973.88 229.17,-973.88 226.21,-973.88 223.25,-970.92 223.25,-967.96 223.25,-967.96 223.25,-962.04 223.25,-962.04 223.25,-959.08 226.21,-956.12 229.17,-956.12 229.17,-956.12 285.08,-956.12 285.08,-956.12 288.04,-956.12 291,-959.08 291,-962.04 291,-962.04 291,-967.96 291,-967.96 291,-970.92 288.04,-973.88 285.08,-973.88"/>
<text text-anchor="start" x="231.25" y="-961.33" font-family="Helvetica,sans-Serif" font-size="9.00">LinkedIn.tsx</text>
</a>
</g>
</g>
<!-- src/pages/TShirtStore.tsx -->
<g id="node23" class="node">
<title>src/pages/TShirtStore.tsx</title>
<g id="a_node23"><a xlink:href="src/pages/TShirtStore.tsx" xlink:title="TShirtStore.tsx">
<path fill="#bbfeff" stroke="black" d="M142.46,-551.88C142.46,-551.88 73.79,-551.88 73.79,-551.88 70.83,-551.88 67.88,-548.92 67.88,-545.96 67.88,-545.96 67.88,-540.04 67.88,-540.04 67.88,-537.08 70.83,-534.12 73.79,-534.12 73.79,-534.12 142.46,-534.12 142.46,-534.12 145.42,-534.12 148.38,-537.08 148.38,-540.04 148.38,-540.04 148.38,-545.96 148.38,-545.96 148.38,-548.92 145.42,-551.88 142.46,-551.88"/>
<text text-anchor="start" x="75.88" y="-539.33" font-family="Helvetica,sans-Serif" font-size="9.00">TShirtStore.tsx</text>
</a>
</g>
</g>
<!-- src/pages/TShirtStore.tsx&#45;&gt;src/components/animation/FadeIn.tsx -->
<g id="edge16" class="edge">
<title>src/pages/TShirtStore.tsx&#45;&gt;src/components/animation/FadeIn.tsx</title>
<path fill="none" stroke="#000000" stroke-width="2" stroke-opacity="0.200000" d="M109.47,-552.17C112.72,-636.2 139.25,-1270.7 200.25,-1325 239.75,-1360.16 459.69,-1353.84 500.62,-1311 512.33,-1298.74 498.29,-1019.44 508.62,-1006 512.02,-1001.58 516.65,-998.41 521.75,-996.15"/>
<polygon fill="#000000" fill-opacity="0.200000" stroke="#000000" stroke-width="2" stroke-opacity="0.200000" points="522.18,-998.23 527.16,-994.28 520.8,-994.26 522.18,-998.23"/>
</g>
<!-- src/pages/_app.tsx -->
<g id="node24" class="node">
<title>src/pages/_app.tsx</title>
<g id="a_node24"><a xlink:href="src/pages/_app.tsx" xlink:title="_app.tsx">
<path fill="#bbfeff" stroke="black" d="M129.21,-401.88C129.21,-401.88 87.04,-401.88 87.04,-401.88 84.08,-401.88 81.12,-398.92 81.12,-395.96 81.12,-395.96 81.12,-390.04 81.12,-390.04 81.12,-387.08 84.08,-384.12 87.04,-384.12 87.04,-384.12 129.21,-384.12 129.21,-384.12 132.17,-384.12 135.12,-387.08 135.12,-390.04 135.12,-390.04 135.12,-395.96 135.12,-395.96 135.12,-398.92 132.17,-401.88 129.21,-401.88"/>
<text text-anchor="start" x="89.75" y="-389.32" font-family="Helvetica,sans-Serif" font-size="9.00">_app.tsx</text>
</a>
</g>
</g>
<!-- src/pages/_app.tsx&#45;&gt;src/components/Loader.tsx -->
<g id="edge18" class="edge">
<title>src/pages/_app.tsx&#45;&gt;src/components/Loader.tsx</title>
<path fill="none" stroke="#000000" stroke-width="2" stroke-opacity="0.200000" d="M135.49,-389.84C154.35,-389.19 178.69,-392 192.25,-408 213.62,-433.22 179.74,-977.08 200.25,-1003 204.66,-1008.57 210.92,-1012.13 217.67,-1014.36"/>
<polygon fill="#000000" fill-opacity="0.200000" stroke="#000000" stroke-width="2" stroke-opacity="0.200000" points="217.1,-1016.38 223.43,-1015.8 218.12,-1012.31 217.1,-1016.38"/>
</g>
<!-- src/pages/_app.tsx&#45;&gt;src/components/layout/index.tsx -->
<g id="edge17" class="edge">
<title>src/pages/_app.tsx&#45;&gt;src/components/layout/index.tsx</title>
<path fill="none" stroke="#000000" stroke-width="2" stroke-opacity="0.200000" d="M135.47,-389.85C154.31,-389.22 178.66,-392.03 192.25,-408 208.28,-426.83 190.18,-830.42 200.25,-853 207.14,-868.43 221.03,-881.39 233.24,-890.52"/>
<polygon fill="#000000" fill-opacity="0.200000" stroke="#000000" stroke-width="2" stroke-opacity="0.200000" points="231.96,-892.19 238.07,-893.94 234.39,-888.76 231.96,-892.19"/>
</g>
<!-- src/styles/globals.css -->
<g id="node25" class="node">
<title>src/styles/globals.css</title>
<g id="a_node25"><a xlink:href="src/styles/globals.css" xlink:title="globals.css">
<path fill="#ffffcc" stroke="black" d="M283.58,-611.88C283.58,-611.88 230.67,-611.88 230.67,-611.88 227.71,-611.88 224.75,-608.92 224.75,-605.96 224.75,-605.96 224.75,-600.04 224.75,-600.04 224.75,-597.08 227.71,-594.12 230.67,-594.12 230.67,-594.12 283.58,-594.12 283.58,-594.12 286.54,-594.12 289.5,-597.08 289.5,-600.04 289.5,-600.04 289.5,-605.96 289.5,-605.96 289.5,-608.92 286.54,-611.88 283.58,-611.88"/>
<text text-anchor="start" x="232.75" y="-599.33" font-family="Helvetica,sans-Serif" font-size="9.00">globals.css</text>
</a>
</g>
</g>
<!-- src/pages/_app.tsx&#45;&gt;src/styles/globals.css -->
<g id="edge19" class="edge">
<title>src/pages/_app.tsx&#45;&gt;src/styles/globals.css</title>
<path fill="none" stroke="#000000" stroke-width="2" stroke-opacity="0.200000" d="M135.34,-389.97C154.12,-389.39 178.43,-392.22 192.25,-408 204.93,-422.48 189.05,-565.35 200.25,-581 204.3,-586.66 210.04,-590.87 216.32,-593.99"/>
<polygon fill="#000000" fill-opacity="0.200000" stroke="#000000" stroke-width="2" stroke-opacity="0.200000" points="215.32,-595.85 221.67,-596.23 216.94,-591.98 215.32,-595.85"/>
</g>
<!-- src/pages/_document.tsx -->
<g id="node26" class="node">
<title>src/pages/_document.tsx</title>
<g id="a_node26"><a xlink:href="src/pages/_document.tsx" xlink:title="no&#45;orphans">
<path fill="#ccffcc" stroke="orange" d="M142.08,-131.88C142.08,-131.88 74.17,-131.88 74.17,-131.88 71.21,-131.88 68.25,-128.92 68.25,-125.96 68.25,-125.96 68.25,-120.04 68.25,-120.04 68.25,-117.08 71.21,-114.12 74.17,-114.12 74.17,-114.12 142.08,-114.12 142.08,-114.12 145.04,-114.12 148,-117.08 148,-120.04 148,-120.04 148,-125.96 148,-125.96 148,-128.92 145.04,-131.88 142.08,-131.88"/>
<text text-anchor="start" x="76.25" y="-119.33" font-family="Helvetica,sans-Serif" font-size="9.00" fill="orange">_document.tsx</text>
</a>
</g>
</g>
<!-- src/pages/about.tsx -->
<g id="node27" class="node">
<title>src/pages/about.tsx</title>
<g id="a_node27"><a xlink:href="src/pages/about.tsx" xlink:title="about.tsx">
<path fill="#bbfeff" stroke="black" d="M130.08,-341.88C130.08,-341.88 86.17,-341.88 86.17,-341.88 83.21,-341.88 80.25,-338.92 80.25,-335.96 80.25,-335.96 80.25,-330.04 80.25,-330.04 80.25,-327.08 83.21,-324.12 86.17,-324.12 86.17,-324.12 130.08,-324.12 130.08,-324.12 133.04,-324.12 136,-327.08 136,-330.04 136,-330.04 136,-335.96 136,-335.96 136,-338.92 133.04,-341.88 130.08,-341.88"/>
<text text-anchor="start" x="88.25" y="-329.32" font-family="Helvetica,sans-Serif" font-size="9.00">about.tsx</text>
</a>
</g>
</g>
<!-- src/pages/about.tsx&#45;&gt;src/components/animation/FadeIn.tsx -->
<g id="edge20" class="edge">
<title>src/pages/about.tsx&#45;&gt;src/components/animation/FadeIn.tsx</title>
<path fill="none" stroke="#000000" stroke-width="2" stroke-opacity="0.200000" d="M136.3,-329.8C155.05,-329.26 178.91,-332.2 192.25,-348 206.5,-364.87 185.49,-1126.57 200.25,-1143 234.16,-1180.76 485.18,-1171.65 500.62,-1157 512.82,-1145.44 498.21,-1019.18 508.62,-1006 512.08,-1001.63 516.74,-998.48 521.85,-996.23"/>
<polygon fill="#000000" fill-opacity="0.200000" stroke="#000000" stroke-width="2" stroke-opacity="0.200000" points="522.28,-998.3 527.27,-994.36 520.91,-994.33 522.28,-998.3"/>
</g>
<!-- src/pages/about.tsx&#45;&gt;src/components/core/Title.tsx -->
<g id="edge21" class="edge">
<title>src/pages/about.tsx&#45;&gt;src/components/core/Title.tsx</title>
<path fill="none" stroke="#000000" stroke-width="2" stroke-opacity="0.200000" d="M136.16,-329.91C154.84,-329.43 178.68,-332.4 192.25,-348 207.21,-365.2 184.97,-536.08 200.25,-553 232.06,-588.23 272.19,-534.68 306,-568 332.59,-594.21 292.96,-624.24 319,-651 344.61,-677.32 374.51,-639.81 400.25,-666 424.88,-691.07 390.88,-716.9 413.25,-744 415.06,-746.19 417.22,-748.06 419.59,-749.66"/>
<polygon fill="#000000" fill-opacity="0.200000" stroke="#000000" stroke-width="2" stroke-opacity="0.200000" points="418.22,-751.31 424.5,-752.26 420.19,-747.6 418.22,-751.31"/>
</g>
<!-- src/pages/about.tsx&#45;&gt;src/components/illustrations/CuteDog.tsx -->
<g id="edge22" class="edge">
<title>src/pages/about.tsx&#45;&gt;src/components/illustrations/CuteDog.tsx</title>
<path fill="none" stroke="#000000" stroke-width="2" stroke-opacity="0.200000" d="M136.27,-329.83C154.99,-329.3 178.85,-332.25 192.25,-348 208.53,-367.13 184.79,-780.21 200.25,-800 203.78,-804.52 208.51,-807.77 213.74,-810.09"/>
<polygon fill="#000000" fill-opacity="0.200000" stroke="#000000" stroke-width="2" stroke-opacity="0.200000" points="213.04,-812.07 219.39,-812.04 214.41,-808.1 213.04,-812.07"/>
</g>
<!-- src/pages/about.tsx&#45;&gt;src/components/illustrations/OurVision.tsx -->
<g id="edge23" class="edge">
<title>src/pages/about.tsx&#45;&gt;src/components/illustrations/OurVision.tsx</title>
<path fill="none" stroke="#000000" stroke-width="2" stroke-opacity="0.200000" d="M136.26,-329.83C154.98,-329.31 178.84,-332.26 192.25,-348 207.21,-365.55 187.09,-744.07 200.25,-763 203.3,-767.39 207.37,-770.9 211.92,-773.71"/>
<polygon fill="#000000" fill-opacity="0.200000" stroke="#000000" stroke-width="2" stroke-opacity="0.200000" points="210.96,-775.58 217.26,-776.44 212.87,-771.84 210.96,-775.58"/>
</g>
<!-- src/pages/activity.tsx -->
<g id="node28" class="node">
<title>src/pages/activity.tsx</title>
<g id="a_node28"><a xlink:href="src/pages/activity.tsx" xlink:title="activity.tsx">
<path fill="#bbfeff" stroke="black" d="M133.46,-281.88C133.46,-281.88 82.79,-281.88 82.79,-281.88 79.83,-281.88 76.88,-278.92 76.88,-275.96 76.88,-275.96 76.88,-270.04 76.88,-270.04 76.88,-267.08 79.83,-264.12 82.79,-264.12 82.79,-264.12 133.46,-264.12 133.46,-264.12 136.42,-264.12 139.38,-267.08 139.38,-270.04 139.38,-270.04 139.38,-275.96 139.38,-275.96 139.38,-278.92 136.42,-281.88 133.46,-281.88"/>
<text text-anchor="start" x="84.88" y="-269.32" font-family="Helvetica,sans-Serif" font-size="9.00">activity.tsx</text>
</a>
</g>
</g>
<!-- src/pages/activity.tsx&#45;&gt;src/components/animation/FadeIn.tsx -->
<g id="edge24" class="edge">
<title>src/pages/activity.tsx&#45;&gt;src/components/animation/FadeIn.tsx</title>
<path fill="none" stroke="#000000" stroke-width="2" stroke-opacity="0.200000" d="M139.54,-269.74C157.73,-269.63 179.67,-273.09 192.25,-288 207.07,-305.56 185.9,-1097.06 200.25,-1115 221.18,-1141.18 476.24,-1166 500.62,-1143 522.81,-1122.07 489.65,-1029.87 508.62,-1006 512.09,-1001.64 516.76,-998.5 521.87,-996.25"/>
<polygon fill="#000000" fill-opacity="0.200000" stroke="#000000" stroke-width="2" stroke-opacity="0.200000" points="522.3,-998.32 527.29,-994.38 520.94,-994.35 522.3,-998.32"/>
</g>
<!-- src/pages/activity.tsx&#45;&gt;src/components/core/Header.tsx -->
<g id="edge25" class="edge">
<title>src/pages/activity.tsx&#45;&gt;src/components/core/Header.tsx</title>
<path fill="none" stroke="#000000" stroke-width="2" stroke-opacity="0.200000" d="M139.5,-269.78C157.66,-269.68 179.61,-273.15 192.25,-288 207.85,-306.32 183.35,-703.88 200.25,-721 229.11,-750.24 350.66,-741.08 414.34,-733.98"/>
<polygon fill="#000000" fill-opacity="0.200000" stroke="#000000" stroke-width="2" stroke-opacity="0.200000" points="414.19,-736.12 419.92,-733.35 413.72,-731.94 414.19,-736.12"/>
</g>
<!-- src/pages/activity.tsx&#45;&gt;src/components/core/Title.tsx -->
<g id="edge26" class="edge">
<title>src/pages/activity.tsx&#45;&gt;src/components/core/Title.tsx</title>
<path fill="none" stroke="#000000" stroke-width="2" stroke-opacity="0.200000" d="M139.5,-269.77C157.67,-269.67 179.61,-273.14 192.25,-288 208.85,-307.51 182.34,-730.69 200.25,-749 215.17,-764.25 352.82,-762.14 418.74,-760.21"/>
<polygon fill="#000000" fill-opacity="0.200000" stroke="#000000" stroke-width="2" stroke-opacity="0.200000" points="418.59,-762.32 424.52,-760.04 418.46,-758.12 418.59,-762.32"/>
</g>
<!-- src/pages/alumni.tsx -->
<g id="node29" class="node">
<title>src/pages/alumni.tsx</title>
<g id="a_node29"><a xlink:href="src/pages/alumni.tsx" xlink:title="alumni.tsx">
<path fill="#bbfeff" stroke="black" d="M132.33,-431.88C132.33,-431.88 83.92,-431.88 83.92,-431.88 80.96,-431.88 78,-428.92 78,-425.96 78,-425.96 78,-420.04 78,-420.04 78,-417.08 80.96,-414.12 83.92,-414.12 83.92,-414.12 132.33,-414.12 132.33,-414.12 135.29,-414.12 138.25,-417.08 138.25,-420.04 138.25,-420.04 138.25,-425.96 138.25,-425.96 138.25,-428.92 135.29,-431.88 132.33,-431.88"/>
<text text-anchor="start" x="86" y="-419.32" font-family="Helvetica,sans-Serif" font-size="9.00">alumni.tsx</text>
</a>
</g>
</g>
<!-- src/pages/alumni.tsx&#45;&gt;src/components/animation/FadeIn.tsx -->
<g id="edge27" class="edge">
<title>src/pages/alumni.tsx&#45;&gt;src/components/animation/FadeIn.tsx</title>
<path fill="none" stroke="#000000" stroke-width="2" stroke-opacity="0.200000" d="M138.72,-419.75C157.06,-419.53 179.47,-422.88 192.25,-438 205.64,-453.85 186.38,-1169.57 200.25,-1185 234.23,-1222.81 485.28,-1213.72 500.62,-1199 516.11,-1184.14 495.41,-1022.91 508.62,-1006 512.05,-1001.61 516.7,-998.45 521.81,-996.2"/>
<polygon fill="#000000" fill-opacity="0.200000" stroke="#000000" stroke-width="2" stroke-opacity="0.200000" points="522.24,-998.27 527.22,-994.33 520.87,-994.3 522.24,-998.27"/>
</g>
<!-- src/pages/alumni.tsx&#45;&gt;src/components/core/Header.tsx -->
<g id="edge28" class="edge">
<title>src/pages/alumni.tsx&#45;&gt;src/components/core/Header.tsx</title>
<path fill="none" stroke="#000000" stroke-width="2" stroke-opacity="0.200000" d="M138.71,-419.76C157.04,-419.54 179.46,-422.89 192.25,-438 203.86,-451.72 187.46,-1072.37 200.25,-1085 231.87,-1116.23 368.23,-1115.82 400.25,-1085 427.57,-1058.7 391.02,-774.71 413.25,-744 414.04,-742.9 414.93,-741.88 415.89,-740.94"/>
<polygon fill="#000000" fill-opacity="0.200000" stroke="#000000" stroke-width="2" stroke-opacity="0.200000" points="417.01,-742.72 420.64,-737.51 414.55,-739.32 417.01,-742.72"/>
</g>
<!-- src/pages/alumni.tsx&#45;&gt;src/components/core/Title.tsx -->
<g id="edge29" class="edge">
<title>src/pages/alumni.tsx&#45;&gt;src/components/core/Title.tsx</title>
<path fill="none" stroke="#000000" stroke-width="2" stroke-opacity="0.200000" d="M138.71,-419.76C157.05,-419.54 179.46,-422.89 192.25,-438 204.15,-452.06 187.15,-1088.06 200.25,-1101 231.87,-1132.24 368.37,-1130.96 400.25,-1100 426.26,-1074.74 391.97,-803.35 413.25,-774 414.96,-771.64 417.09,-769.65 419.47,-767.97"/>
<polygon fill="#000000" fill-opacity="0.200000" stroke="#000000" stroke-width="2" stroke-opacity="0.200000" points="420.22,-769.95 424.51,-765.26 418.23,-766.25 420.22,-769.95"/>
</g>
<!-- src/pages/alumni.tsx&#45;&gt;src/components/logos/LinkedIn.tsx -->
<g id="edge30" class="edge">
<title>src/pages/alumni.tsx&#45;&gt;src/components/logos/LinkedIn.tsx</title>
<path fill="none" stroke="#000000" stroke-width="2" stroke-opacity="0.200000" d="M138.69,-419.77C157.02,-419.56 179.44,-422.91 192.25,-438 210.41,-459.39 184.27,-919.93 200.25,-943 203.92,-948.3 209.08,-952.33 214.8,-955.38"/>
<polygon fill="#000000" fill-opacity="0.200000" stroke="#000000" stroke-width="2" stroke-opacity="0.200000" points="213.75,-957.21 220.09,-957.74 215.46,-953.38 213.75,-957.21"/>
</g>
<!-- src/pages/comingsoon.tsx -->
<g id="node30" class="node">
<title>src/pages/comingsoon.tsx</title>
<g id="a_node30"><a xlink:href="src/pages/comingsoon.tsx" xlink:title="comingsoon.tsx">
<path fill="#bbfeff" stroke="black" d="M144.33,-371.88C144.33,-371.88 71.92,-371.88 71.92,-371.88 68.96,-371.88 66,-368.92 66,-365.96 66,-365.96 66,-360.04 66,-360.04 66,-357.08 68.96,-354.12 71.92,-354.12 71.92,-354.12 144.33,-354.12 144.33,-354.12 147.29,-354.12 150.25,-357.08 150.25,-360.04 150.25,-360.04 150.25,-365.96 150.25,-365.96 150.25,-368.92 147.29,-371.88 144.33,-371.88"/>
<text text-anchor="start" x="74" y="-359.32" font-family="Helvetica,sans-Serif" font-size="9.00">comingsoon.tsx</text>
</a>
</g>
</g>
<!-- src/pages/comingsoon.tsx&#45;&gt;src/components/animation/FadeIn.tsx -->
<g id="edge31" class="edge">
<title>src/pages/comingsoon.tsx&#45;&gt;src/components/animation/FadeIn.tsx</title>
<path fill="none" stroke="#000000" stroke-width="2" stroke-opacity="0.200000" d="M150.54,-360.14C165.94,-361.42 182.13,-366.01 192.25,-378 206.46,-394.83 184.59,-1155.5 200.25,-1171 212.11,-1182.74 488.54,-1182.51 500.62,-1171 513.91,-1158.34 497.28,-1020.43 508.62,-1006 512.07,-1001.62 516.73,-998.47 521.83,-996.22"/>
<polygon fill="#000000" fill-opacity="0.200000" stroke="#000000" stroke-width="2" stroke-opacity="0.200000" points="522.26,-998.29 527.25,-994.35 520.9,-994.32 522.26,-998.29"/>
</g>
<!-- src/pages/comingsoon.tsx&#45;&gt;src/components/core/Title.tsx -->
<g id="edge32" class="edge">
<title>src/pages/comingsoon.tsx&#45;&gt;src/components/core/Title.tsx</title>
<path fill="none" stroke="#000000" stroke-width="2" stroke-opacity="0.200000" d="M150.34,-360.31C165.72,-361.61 181.94,-366.18 192.25,-378 206.07,-393.84 186.21,-551.36 200.25,-567 232,-602.38 272.27,-549.51 306,-583 332.18,-609 300.82,-632.89 319,-665 345.93,-712.56 366,-716.53 413.25,-744 415.17,-745.12 417.19,-746.18 419.27,-747.18"/>
<polygon fill="#000000" fill-opacity="0.200000" stroke="#000000" stroke-width="2" stroke-opacity="0.200000" points="418.28,-749.04 424.62,-749.53 419.97,-745.2 418.28,-749.04"/>
</g>
<!-- src/pages/contact.tsx -->
<g id="node31" class="node">
<title>src/pages/contact.tsx</title>
<g id="a_node31"><a xlink:href="src/pages/contact.tsx" xlink:title="contact.tsx">
<path fill="#bbfeff" stroke="black" d="M134.21,-101.88C134.21,-101.88 82.04,-101.88 82.04,-101.88 79.08,-101.88 76.12,-98.92 76.12,-95.96 76.12,-95.96 76.12,-90.04 76.12,-90.04 76.12,-87.08 79.08,-84.12 82.04,-84.12 82.04,-84.12 134.21,-84.12 134.21,-84.12 137.17,-84.12 140.12,-87.08 140.12,-90.04 140.12,-90.04 140.12,-95.96 140.12,-95.96 140.12,-98.92 137.17,-101.88 134.21,-101.88"/>
<text text-anchor="start" x="84.12" y="-89.33" font-family="Helvetica,sans-Serif" font-size="9.00">contact.tsx</text>
</a>
</g>
</g>
<!-- src/pages/contact.tsx&#45;&gt;src/components/animation/FadeIn.tsx -->
<g id="edge33" class="edge">
<title>src/pages/contact.tsx&#45;&gt;src/components/animation/FadeIn.tsx</title>
<path fill="none" stroke="#000000" stroke-width="2" stroke-opacity="0.200000" d="M140.37,-89.73C158.39,-89.73 179.87,-93.31 192.25,-108 209.36,-128.31 181.39,-1045.3 200.25,-1064 216.03,-1079.65 378.7,-1069.41 400.25,-1064 453.24,-1050.71 458.07,-1026.71 508.62,-1006 512.79,-1004.29 517.22,-1002.7 521.66,-1001.22"/>
<polygon fill="#000000" fill-opacity="0.200000" stroke="#000000" stroke-width="2" stroke-opacity="0.200000" points="522.16,-1003.26 527.25,-999.46 520.9,-999.26 522.16,-1003.26"/>
</g>
<!-- src/pages/contact.tsx&#45;&gt;src/components/core/Header.tsx -->
<g id="edge34" class="edge">
<title>src/pages/contact.tsx&#45;&gt;src/components/core/Header.tsx</title>
<path fill="none" stroke="#000000" stroke-width="2" stroke-opacity="0.200000" d="M140.28,-92.03C157.17,-93.02 177.53,-96.83 192.25,-108 361.33,-236.38 345.32,-332.93 400.25,-538 410.51,-576.31 388.74,-684.82 413.25,-716 414.07,-717.05 414.99,-718.02 415.96,-718.9"/>
<polygon fill="#000000" fill-opacity="0.200000" stroke="#000000" stroke-width="2" stroke-opacity="0.200000" points="414.57,-720.5 420.74,-722.06 416.89,-717 414.57,-720.5"/>
</g>
<!-- src/pages/contact.tsx&#45;&gt;src/components/core/Title.tsx -->
<g id="edge35" class="edge">
<title>src/pages/contact.tsx&#45;&gt;src/components/core/Title.tsx</title>
<path fill="none" stroke="#000000" stroke-width="2" stroke-opacity="0.200000" d="M140.62,-90.25C158.27,-90.53 179.28,-94.23 192.25,-108 202.53,-118.91 196.43,-160.5 200.25,-175 258.89,-397.28 339.22,-430.37 400.25,-652 411.21,-691.81 387.36,-711.83 413.25,-744 415.08,-746.27 417.29,-748.2 419.72,-749.84"/>
<polygon fill="#000000" fill-opacity="0.200000" stroke="#000000" stroke-width="2" stroke-opacity="0.200000" points="418.54,-751.59 424.83,-752.51 420.49,-747.87 418.54,-751.59"/>
</g>
<!-- src/pages/countdown.jsx -->
<g id="node32" class="node">
<title>src/pages/countdown.jsx</title>
<g id="a_node32"><a xlink:href="src/pages/countdown.jsx" xlink:title="no&#45;orphans">
<path fill="#ccffcc" stroke="orange" d="M140.96,-311.88C140.96,-311.88 75.29,-311.88 75.29,-311.88 72.33,-311.88 69.38,-308.92 69.38,-305.96 69.38,-305.96 69.38,-300.04 69.38,-300.04 69.38,-297.08 72.33,-294.12 75.29,-294.12 75.29,-294.12 140.96,-294.12 140.96,-294.12 143.92,-294.12 146.88,-297.08 146.88,-300.04 146.88,-300.04 146.88,-305.96 146.88,-305.96 146.88,-308.92 143.92,-311.88 140.96,-311.88"/>
<text text-anchor="start" x="77.38" y="-299.32" font-family="Helvetica,sans-Serif" font-size="9.00" fill="orange">countdown.jsx</text>
</a>
</g>
</g>
<!-- src/pages/faculty.tsx -->
<g id="node33" class="node">
<title>src/pages/faculty.tsx</title>
<g id="a_node33"><a xlink:href="src/pages/faculty.tsx" xlink:title="faculty.tsx">
<path fill="#bbfeff" stroke="black" d="M132.33,-251.88C132.33,-251.88 83.92,-251.88 83.92,-251.88 80.96,-251.88 78,-248.92 78,-245.96 78,-245.96 78,-240.04 78,-240.04 78,-237.08 80.96,-234.12 83.92,-234.12 83.92,-234.12 132.33,-234.12 132.33,-234.12 135.29,-234.12 138.25,-237.08 138.25,-240.04 138.25,-240.04 138.25,-245.96 138.25,-245.96 138.25,-248.92 135.29,-251.88 132.33,-251.88"/>
<text text-anchor="start" x="86" y="-239.32" font-family="Helvetica,sans-Serif" font-size="9.00">faculty.tsx</text>
</a>
</g>
</g>
<!-- src/pages/faculty.tsx&#45;&gt;src/components/animation/FadeIn.tsx -->
<g id="edge36" class="edge">
<title>src/pages/faculty.tsx&#45;&gt;src/components/animation/FadeIn.tsx</title>
<path fill="none" stroke="#000000" stroke-width="2" stroke-opacity="0.200000" d="M138.72,-239.74C157.06,-239.53 179.48,-242.87 192.25,-258 207.35,-275.9 183.61,-1084.52 200.25,-1101 212.11,-1112.74 488.34,-1112.29 500.62,-1101 516.22,-1086.66 495.23,-1022.42 508.62,-1006 512.15,-1001.68 516.85,-998.57 521.97,-996.33"/>
<polygon fill="#000000" fill-opacity="0.200000" stroke="#000000" stroke-width="2" stroke-opacity="0.200000" points="522.4,-998.4 527.4,-994.46 521.04,-994.43 522.4,-998.4"/>
</g>
<!-- src/pages/faculty.tsx&#45;&gt;src/components/core/Header.tsx -->
<g id="edge37" class="edge">
<title>src/pages/faculty.tsx&#45;&gt;src/components/core/Header.tsx</title>
<path fill="none" stroke="#000000" stroke-width="2" stroke-opacity="0.200000" d="M138.68,-239.78C157.01,-239.58 179.42,-242.92 192.25,-258 208.42,-277 183.23,-688.76 200.25,-707 207.44,-714.7 344.84,-723.15 414.23,-726.95"/>
<polygon fill="#000000" fill-opacity="0.200000" stroke="#000000" stroke-width="2" stroke-opacity="0.200000" points="414.02,-729.04 420.12,-727.27 414.24,-724.85 414.02,-729.04"/>
</g>
<!-- src/pages/faculty.tsx&#45;&gt;src/components/core/Title.tsx -->
<g id="edge38" class="edge">
<title>src/pages/faculty.tsx&#45;&gt;src/components/core/Title.tsx</title>
<path fill="none" stroke="#000000" stroke-width="2" stroke-opacity="0.200000" d="M138.68,-239.78C157.01,-239.57 179.42,-242.92 192.25,-258 208.77,-277.43 183.59,-697.69 200.25,-717 214.37,-733.36 352.43,-749.03 418.6,-755.67"/>
<polygon fill="#000000" fill-opacity="0.200000" stroke="#000000" stroke-width="2" stroke-opacity="0.200000" points="418.25,-757.75 424.43,-756.25 418.67,-753.57 418.25,-757.75"/>
</g>
<!-- src/pages/gallery.tsx -->
<g id="node34" class="node">
<title>src/pages/gallery.tsx</title>
<g id="a_node34"><a xlink:href="src/pages/gallery.tsx" xlink:title="gallery.tsx">
<path fill="#bbfeff" stroke="black" d="M132.33,-221.88C132.33,-221.88 83.92,-221.88 83.92,-221.88 80.96,-221.88 78,-218.92 78,-215.96 78,-215.96 78,-210.04 78,-210.04 78,-207.08 80.96,-204.12 83.92,-204.12 83.92,-204.12 132.33,-204.12 132.33,-204.12 135.29,-204.12 138.25,-207.08 138.25,-210.04 138.25,-210.04 138.25,-215.96 138.25,-215.96 138.25,-218.92 135.29,-221.88 132.33,-221.88"/>
<text text-anchor="start" x="86" y="-209.32" font-family="Helvetica,sans-Serif" font-size="9.00">gallery.tsx</text>
</a>
</g>
</g>
<!-- src/pages/gallery.tsx&#45;&gt;src/components/core/Header.tsx -->
<g id="edge39" class="edge">
<title>src/pages/gallery.tsx&#45;&gt;src/components/core/Header.tsx</title>
<path fill="none" stroke="#000000" stroke-width="2" stroke-opacity="0.200000" d="M138.68,-209.78C157.01,-209.58 179.42,-212.92 192.25,-228 208.49,-247.09 184.15,-659.8 200.25,-679 214.8,-696.35 378.05,-713.55 400.25,-718 404.89,-718.93 409.75,-719.92 414.57,-720.9"/>
<polygon fill="#000000" fill-opacity="0.200000" stroke="#000000" stroke-width="2" stroke-opacity="0.200000" points="413.89,-722.9 420.19,-722.05 414.73,-718.79 413.89,-722.9"/>
</g>
<!-- src/pages/index.tsx -->
<g id="node35" class="node">
<title>src/pages/index.tsx</title>
<g id="a_node35"><a xlink:href="src/pages/index.tsx" xlink:title="index.tsx">
<path fill="#bbfeff" stroke="black" d="M129.71,-191.88C129.71,-191.88 86.54,-191.88 86.54,-191.88 83.58,-191.88 80.62,-188.92 80.62,-185.96 80.62,-185.96 80.62,-180.04 80.62,-180.04 80.62,-177.08 83.58,-174.12 86.54,-174.12 86.54,-174.12 129.71,-174.12 129.71,-174.12 132.67,-174.12 135.62,-177.08 135.62,-180.04 135.62,-180.04 135.62,-185.96 135.62,-185.96 135.62,-188.92 132.67,-191.88 129.71,-191.88"/>
<text text-anchor="start" x="88.62" y="-179.32" font-family="Helvetica,sans-Serif" font-size="9.00">index.tsx</text>
</a>
</g>
</g>
<!-- src/pages/index.tsx&#45;&gt;src/components/Hero.tsx -->
<g id="edge44" class="edge">
<title>src/pages/index.tsx&#45;&gt;src/components/Hero.tsx</title>
<path fill="none" stroke="#000000" stroke-width="2" stroke-opacity="0.200000" d="M135.87,-179.84C154.66,-179.26 178.76,-182.14 192.25,-198 208.56,-217.17 182.3,-633.36 200.25,-651 217.01,-667.47 285.59,-662.65 306,-651 315.86,-645.37 309.14,-634.63 319,-629 350.36,-611.1 367.66,-613.44 400.25,-629 421.54,-639.16 437.08,-662.43 445.73,-678.43"/>
<polygon fill="#000000" fill-opacity="0.200000" stroke="#000000" stroke-width="2" stroke-opacity="0.200000" points="443.64,-678.95 448.24,-683.34 447.37,-677.04 443.64,-678.95"/>
</g>
<!-- src/pages/index.tsx&#45;&gt;src/components/animation/FadeIn.tsx -->
<g id="edge42" class="edge">
<title>src/pages/index.tsx&#45;&gt;src/components/animation/FadeIn.tsx</title>
<path fill="none" stroke="#000000" stroke-width="2" stroke-opacity="0.200000" d="M135.91,-179.8C154.72,-179.21 178.82,-182.08 192.25,-198 208.17,-216.88 182.71,-1069.62 200.25,-1087 212.1,-1098.75 488.26,-1098.2 500.62,-1087 514.03,-1074.85 497.09,-1019.93 508.62,-1006 512.14,-1001.75 516.79,-998.67 521.86,-996.45"/>
<polygon fill="#000000" fill-opacity="0.200000" stroke="#000000" stroke-width="2" stroke-opacity="0.200000" points="522.21,-998.54 527.19,-994.59 520.84,-994.58 522.21,-998.54"/>
</g>
<!-- src/pages/index.tsx&#45;&gt;src/components/core/Header.tsx -->
<g id="edge43" class="edge">
<title>src/pages/index.tsx&#45;&gt;src/components/core/Header.tsx</title>
<path fill="none" stroke="#000000" stroke-width="2" stroke-opacity="0.200000" d="M135.87,-179.84C154.66,-179.26 178.76,-182.14 192.25,-198 208.88,-217.55 183.7,-640.38 200.25,-660 231.09,-696.57 259.3,-669.65 306,-680 348.2,-689.35 362.26,-683.38 400.25,-704 407.16,-707.75 406.46,-712.04 413.25,-716 413.82,-716.33 414.4,-716.66 414.99,-716.98"/>
<polygon fill="#000000" fill-opacity="0.200000" stroke="#000000" stroke-width="2" stroke-opacity="0.200000" points="413.95,-718.81 420.28,-719.45 415.73,-715.01 413.95,-718.81"/>
</g>
<!-- src/pages/partner.tsx -->
<g id="node36" class="node">
<title>src/pages/partner.tsx</title>
<g id="a_node36"><a xlink:href="src/pages/partner.tsx" xlink:title="partner.tsx">
<path fill="#bbfeff" stroke="black" d="M133.46,-71.88C133.46,-71.88 82.79,-71.88 82.79,-71.88 79.83,-71.88 76.88,-68.92 76.88,-65.96 76.88,-65.96 76.88,-60.04 76.88,-60.04 76.88,-57.08 79.83,-54.12 82.79,-54.12 82.79,-54.12 133.46,-54.12 133.46,-54.12 136.42,-54.12 139.38,-57.08 139.38,-60.04 139.38,-60.04 139.38,-65.96 139.38,-65.96 139.38,-68.92 136.42,-71.88 133.46,-71.88"/>
<text text-anchor="start" x="84.88" y="-59.33" font-family="Helvetica,sans-Serif" font-size="9.00">partner.tsx</text>
</a>
</g>
</g>
<!-- src/pages/partner.tsx&#45;&gt;src/components/core/Title.tsx -->
<g id="edge46" class="edge">
<title>src/pages/partner.tsx&#45;&gt;src/components/core/Title.tsx</title>
<path fill="none" stroke="#000000" stroke-width="2" stroke-opacity="0.200000" d="M139.52,-59.76C157.69,-59.66 179.64,-63.12 192.25,-78 212.48,-101.86 183.44,-614.62 200.25,-641 225.28,-680.28 355.25,-727 418.7,-747.92"/>
<polygon fill="#000000" fill-opacity="0.200000" stroke="#000000" stroke-width="2" stroke-opacity="0.200000" points="417.96,-749.89 424.32,-749.76 419.27,-745.89 417.96,-749.89"/>
</g>
<!-- src/pages/promotion.tsx -->
<g id="node37" class="node">
<title>src/pages/promotion.tsx</title>
<g id="a_node37"><a xlink:href="src/pages/promotion.tsx" xlink:title="promotion.tsx">
<path fill="#bbfeff" stroke="black" d="M288.83,-71.88C288.83,-71.88 225.42,-71.88 225.42,-71.88 222.46,-71.88 219.5,-68.92 219.5,-65.96 219.5,-65.96 219.5,-60.04 219.5,-60.04 219.5,-57.08 222.46,-54.12 225.42,-54.12 225.42,-54.12 288.83,-54.12 288.83,-54.12 291.79,-54.12 294.75,-57.08 294.75,-60.04 294.75,-60.04 294.75,-65.96 294.75,-65.96 294.75,-68.92 291.79,-71.88 288.83,-71.88"/>
<text text-anchor="start" x="227.5" y="-59.33" font-family="Helvetica,sans-Serif" font-size="9.00">promotion.tsx</text>
</a>
</g>
</g>
<!-- src/pages/partner.tsx&#45;&gt;src/pages/promotion.tsx -->
<g id="edge45" class="edge">
<title>src/pages/partner.tsx&#45;&gt;src/pages/promotion.tsx</title>
<path fill="none" stroke="#000000" stroke-width="2" stroke-opacity="0.200000" d="M139.58,-63C160,-63 187.26,-63 210.28,-63"/>
<polygon fill="#000000" fill-opacity="0.200000" stroke="#000000" stroke-width="2" stroke-opacity="0.200000" points="210.17,-65.1 216.17,-63 210.17,-60.9 210.17,-65.1"/>
</g>
<!-- src/pages/question.jsx -->
<g id="node38" class="node">
<title>src/pages/question.jsx</title>
<g id="a_node38"><a xlink:href="src/pages/question.jsx" xlink:title="question.jsx">
<path fill="#ffff77" stroke="black" d="M285.08,-41.88C285.08,-41.88 229.17,-41.88 229.17,-41.88 226.21,-41.88 223.25,-38.92 223.25,-35.96 223.25,-35.96 223.25,-30.04 223.25,-30.04 223.25,-27.08 226.21,-24.12 229.17,-24.12 229.17,-24.12 285.08,-24.12 285.08,-24.12 288.04,-24.12 291,-27.08 291,-30.04 291,-30.04 291,-35.96 291,-35.96 291,-38.92 288.04,-41.88 285.08,-41.88"/>
<text text-anchor="start" x="231.25" y="-29.32" font-family="Helvetica,sans-Serif" font-size="9.00">question.jsx</text>
</a>
</g>
</g>
<!-- src/pages/skillde&#45;hackathon&#45;winners&#45;page.tsx -->
<g id="node39" class="node">
<title>src/pages/skillde&#45;hackathon&#45;winners&#45;page.tsx</title>
<g id="a_node39"><a xlink:href="src/pages/skillde-hackathon-winners-page.tsx" xlink:title="skillde&#45;hackathon&#45;winners&#45;page.tsx">
<path fill="#bbfeff" stroke="black" d="M186.33,-461.88C186.33,-461.88 29.92,-461.88 29.92,-461.88 26.96,-461.88 24,-458.92 24,-455.96 24,-455.96 24,-450.04 24,-450.04 24,-447.08 26.96,-444.12 29.92,-444.12 29.92,-444.12 186.33,-444.12 186.33,-444.12 189.29,-444.12 192.25,-447.08 192.25,-450.04 192.25,-450.04 192.25,-455.96 192.25,-455.96 192.25,-458.92 189.29,-461.88 186.33,-461.88"/>
<text text-anchor="start" x="32" y="-449.32" font-family="Helvetica,sans-Serif" font-size="9.00">skillde&#45;hackathon&#45;winners&#45;page.tsx</text>
</a>
</g>
</g>
<!-- src/pages/skillde&#45;hackathon&#45;winners&#45;page.tsx&#45;&gt;src/components/animation/FadeIn.tsx -->
<g id="edge47" class="edge">
<title>src/pages/skillde&#45;hackathon&#45;winners&#45;page.tsx&#45;&gt;src/components/animation/FadeIn.tsx</title>
<path fill="none" stroke="#000000" stroke-width="2" stroke-opacity="0.200000" d="M186.32,-462.29C188.46,-463.98 190.45,-465.87 192.25,-468 205.61,-483.81 188.21,-1196.17 200.25,-1213 232.81,-1258.54 263.83,-1245.53 319,-1255 398.56,-1268.65 442.64,-1311.16 500.62,-1255 520.51,-1235.74 491.69,-1027.89 508.62,-1006 512.03,-1001.59 516.67,-998.43 521.77,-996.17"/>
<polygon fill="#000000" fill-opacity="0.200000" stroke="#000000" stroke-width="2" stroke-opacity="0.200000" points="522.2,-998.24 527.19,-994.3 520.83,-994.27 522.2,-998.24"/>
</g>
<!-- src/pages/skillde&#45;hackathon&#45;winners&#45;page.tsx&#45;&gt;src/components/ScrollToBottom.tsx -->
<g id="edge50" class="edge">
<title>src/pages/skillde&#45;hackathon&#45;winners&#45;page.tsx&#45;&gt;src/components/ScrollToBottom.tsx</title>
<path fill="none" stroke="#000000" stroke-width="2" stroke-opacity="0.200000" d="M186.31,-462.3C188.46,-463.98 190.45,-465.87 192.25,-468 212.51,-491.9 181,-1007.27 200.25,-1032 200.6,-1032.45 200.96,-1032.88 201.33,-1033.3"/>
<polygon fill="#000000" fill-opacity="0.200000" stroke="#000000" stroke-width="2" stroke-opacity="0.200000" points="199.94,-1034.88 205.87,-1037.17 202.66,-1031.68 199.94,-1034.88"/>
</g>
<!-- src/pages/skillde&#45;hackathon&#45;winners&#45;page.tsx&#45;&gt;src/components/animation/WinnersCard.tsx -->
<g id="edge48" class="edge">
<title>src/pages/skillde&#45;hackathon&#45;winners&#45;page.tsx&#45;&gt;src/components/animation/WinnersCard.tsx</title>
<path fill="none" stroke="#000000" stroke-width="2" stroke-opacity="0.200000" d="M186.32,-462.29C188.46,-463.98 190.45,-465.87 192.25,-468 206.03,-484.32 187.71,-1219.71 200.25,-1237 240.56,-1292.56 447.44,-1352.39 500.62,-1309 542.96,-1274.46 555.75,-1096.23 558.8,-1038.83"/>
<polygon fill="#000000" fill-opacity="0.200000" stroke="#000000" stroke-width="2" stroke-opacity="0.200000" points="560.88,-1039.26 559.09,-1033.16 556.69,-1039.05 560.88,-1039.26"/>
</g>
<!-- src/pages/skillde&#45;hackathon&#45;winners&#45;page.tsx&#45;&gt;src/components/core/Title.tsx -->
<g id="edge49" class="edge">
<title>src/pages/skillde&#45;hackathon&#45;winners&#45;page.tsx&#45;&gt;src/components/core/Title.tsx</title>
<path fill="none" stroke="#000000" stroke-width="2" stroke-opacity="0.200000" d="M186.32,-462.29C188.46,-463.98 190.45,-465.87 192.25,-468 204.61,-482.62 186.64,-1143.54 200.25,-1157 232.17,-1188.55 372.76,-1164.47 400.25,-1129 424.43,-1097.8 390.13,-805.99 413.25,-774 414.96,-771.64 417.08,-769.64 419.46,-767.97"/>
<polygon fill="#000000" fill-opacity="0.200000" stroke="#000000" stroke-width="2" stroke-opacity="0.200000" points="420.21,-769.94 424.5,-765.25 418.22,-766.25 420.21,-769.94"/>
</g>
<!-- src/pages/startup.tsx -->
<g id="node40" class="node">
<title>src/pages/startup.tsx</title>
<g id="a_node40"><a xlink:href="src/pages/startup.tsx" xlink:title="startup.tsx">
<path fill="#bbfeff" stroke="black" d="M133.46,-491.88C133.46,-491.88 82.79,-491.88 82.79,-491.88 79.83,-491.88 76.88,-488.92 76.88,-485.96 76.88,-485.96 76.88,-480.04 76.88,-480.04 76.88,-477.08 79.83,-474.12 82.79,-474.12 82.79,-474.12 133.46,-474.12 133.46,-474.12 136.42,-474.12 139.38,-477.08 139.38,-480.04 139.38,-480.04 139.38,-485.96 139.38,-485.96 139.38,-488.92 136.42,-491.88 133.46,-491.88"/>
<text text-anchor="start" x="84.88" y="-479.32" font-family="Helvetica,sans-Serif" font-size="9.00">startup.tsx</text>
</a>
</g>
</g>
<!-- src/pages/startup.tsx&#45;&gt;src/components/animation/FadeIn.tsx -->
<g id="edge51" class="edge">
<title>src/pages/startup.tsx&#45;&gt;src/components/animation/FadeIn.tsx</title>
<path fill="none" stroke="#000000" stroke-width="2" stroke-opacity="0.200000" d="M139.54,-479.74C157.72,-479.63 179.66,-483.1 192.25,-498 205.82,-514.06 187.11,-1238.58 200.25,-1255 221.19,-1281.17 476.58,-1306.36 500.62,-1283 522.71,-1261.54 489.82,-1030.38 508.62,-1006 512.03,-1001.59 516.66,-998.42 521.76,-996.16"/>
<polygon fill="#000000" fill-opacity="0.200000" stroke="#000000" stroke-width="2" stroke-opacity="0.200000" points="522.19,-998.23 527.17,-994.29 520.82,-994.26 522.19,-998.23"/>
</g>
<!-- src/pages/startup.tsx&#45;&gt;src/components/core/Header.tsx -->
<g id="edge52" class="edge">
<title>src/pages/startup.tsx&#45;&gt;src/components/core/Header.tsx</title>
<path fill="none" stroke="#000000" stroke-width="2" stroke-opacity="0.200000" d="M139.53,-479.75C157.7,-479.65 179.65,-483.11 192.25,-498 203.58,-511.38 187.78,-1116.68 200.25,-1129 263.66,-1191.61 340.88,-1181.45 400.25,-1115 427.73,-1084.24 389.11,-777.45 413.25,-744 414.04,-742.9 414.93,-741.88 415.88,-740.94"/>
<polygon fill="#000000" fill-opacity="0.200000" stroke="#000000" stroke-width="2" stroke-opacity="0.200000" points="417,-742.72 420.63,-737.5 414.54,-739.32 417,-742.72"/>
</g>
<!-- src/pages/startup.tsx&#45;&gt;src/components/core/Title.tsx -->
<g id="edge53" class="edge">
<title>src/pages/startup.tsx&#45;&gt;src/components/core/Title.tsx</title>
<path fill="none" stroke="#000000" stroke-width="2" stroke-opacity="0.200000" d="M139.53,-479.75C157.71,-479.64 179.65,-483.11 192.25,-498 204.02,-511.91 187.29,-1141.19 200.25,-1154 263.55,-1216.53 339.25,-1209.78 400.25,-1145 428.53,-1114.97 389.11,-807.45 413.25,-774 414.96,-771.64 417.08,-769.64 419.45,-767.96"/>
<polygon fill="#000000" fill-opacity="0.200000" stroke="#000000" stroke-width="2" stroke-opacity="0.200000" points="420.21,-769.94 424.5,-765.25 418.22,-766.24 420.21,-769.94"/>
</g>
<!-- src/pages/submission.jsx -->
<g id="node41" class="node">
<title>src/pages/submission.jsx</title>
<g id="a_node41"><a xlink:href="src/pages/submission.jsx" xlink:title="submission.jsx">
<path fill="#ffff77" stroke="black" d="M142.46,-41.88C142.46,-41.88 73.79,-41.88 73.79,-41.88 70.83,-41.88 67.88,-38.92 67.88,-35.96 67.88,-35.96 67.88,-30.04 67.88,-30.04 67.88,-27.08 70.83,-24.12 73.79,-24.12 73.79,-24.12 142.46,-24.12 142.46,-24.12 145.42,-24.12 148.38,-27.08 148.38,-30.04 148.38,-30.04 148.38,-35.96 148.38,-35.96 148.38,-38.92 145.42,-41.88 142.46,-41.88"/>
<text text-anchor="start" x="75.88" y="-29.32" font-family="Helvetica,sans-Serif" font-size="9.00">submission.jsx</text>
</a>
</g>
</g>
<!-- src/pages/submission.jsx&#45;&gt;src/pages/question.jsx -->
<g id="edge54" class="edge">
<title>src/pages/submission.jsx&#45;&gt;src/pages/question.jsx</title>
<path fill="none" stroke="#000000" stroke-width="2" stroke-opacity="0.200000" d="M148.52,-33C168.82,-33 193.57,-33 214.22,-33"/>
<polygon fill="#000000" fill-opacity="0.200000" stroke="#000000" stroke-width="2" stroke-opacity="0.200000" points="214.07,-35.1 220.07,-33 214.07,-30.9 214.07,-35.1"/>
</g>
<!-- src/pages/team.tsx -->
<g id="node42" class="node">
<title>src/pages/team.tsx</title>
<g id="a_node42"><a xlink:href="src/pages/team.tsx" xlink:title="team.tsx">
<path fill="#bbfeff" stroke="black" d="M129.21,-521.88C129.21,-521.88 87.04,-521.88 87.04,-521.88 84.08,-521.88 81.12,-518.92 81.12,-515.96 81.12,-515.96 81.12,-510.04 81.12,-510.04 81.12,-507.08 84.08,-504.12 87.04,-504.12 87.04,-504.12 129.21,-504.12 129.21,-504.12 132.17,-504.12 135.12,-507.08 135.12,-510.04 135.12,-510.04 135.12,-515.96 135.12,-515.96 135.12,-518.92 132.17,-521.88 129.21,-521.88"/>
<text text-anchor="start" x="89.38" y="-509.32" font-family="Helvetica,sans-Serif" font-size="9.00">team.tsx</text>
</a>
</g>
</g>
<!-- src/pages/team.tsx&#45;&gt;src/components/animation/FadeIn.tsx -->
<g id="edge55" class="edge">
<title>src/pages/team.tsx&#45;&gt;src/components/animation/FadeIn.tsx</title>
<path fill="none" stroke="#000000" stroke-width="2" stroke-opacity="0.200000" d="M135.51,-509.82C154.37,-509.18 178.72,-511.98 192.25,-528 206.03,-544.32 185.07,-1281.97 200.25,-1297 223.97,-1320.48 476.7,-1320.27 500.62,-1297 512.22,-1285.72 498.76,-1018.81 508.62,-1006 512.02,-1001.58 516.66,-998.42 521.75,-996.16"/>
<polygon fill="#000000" fill-opacity="0.200000" stroke="#000000" stroke-width="2" stroke-opacity="0.200000" points="522.18,-998.23 527.17,-994.29 520.81,-994.26 522.18,-998.23"/>
</g>
<!-- src/pages/team.tsx&#45;&gt;src/components/core/Header.tsx -->
<g id="edge56" class="edge">
<title>src/pages/team.tsx&#45;&gt;src/components/core/Header.tsx</title>
<path fill="none" stroke="#000000" stroke-width="2" stroke-opacity="0.200000" d="M135.5,-509.83C154.36,-509.18 178.71,-511.99 192.25,-528 204.79,-542.83 186.44,-1213.35 200.25,-1227 263.62,-1289.65 341.13,-1279.67 400.25,-1213 434.84,-1174 382.9,-786.39 413.25,-744 414.04,-742.9 414.92,-741.88 415.87,-740.93"/>
<polygon fill="#000000" fill-opacity="0.200000" stroke="#000000" stroke-width="2" stroke-opacity="0.200000" points="416.99,-742.71 420.61,-737.49 414.52,-739.32 416.99,-742.71"/>
</g>
<!-- src/pages/team.tsx&#45;&gt;src/components/core/Title.tsx -->
<g id="edge57" class="edge">
<title>src/pages/team.tsx&#45;&gt;src/components/core/Title.tsx</title>
<path fill="none" stroke="#000000" stroke-width="2" stroke-opacity="0.200000" d="M135.5,-509.83C154.36,-509.18 178.71,-511.98 192.25,-528 205.04,-543.13 186.17,-1227.07 200.25,-1241 263.61,-1303.65 341.09,-1293.64 400.25,-1227 433.68,-1189.34 383.92,-814.93 413.25,-774 414.95,-771.63 417.07,-769.63 419.44,-767.95"/>
<polygon fill="#000000" fill-opacity="0.200000" stroke="#000000" stroke-width="2" stroke-opacity="0.200000" points="420.19,-769.93 424.47,-765.23 418.2,-766.24 420.19,-769.93"/>
</g>
<!-- src/pages/team.tsx&#45;&gt;src/components/logos/LinkedIn.tsx -->
<g id="edge58" class="edge">
<title>src/pages/team.tsx&#45;&gt;src/components/logos/LinkedIn.tsx</title>
<path fill="none" stroke="#000000" stroke-width="2" stroke-opacity="0.200000" d="M135.46,-509.86C154.3,-509.23 178.65,-512.04 192.25,-528 207.21,-545.55 187.09,-924.07 200.25,-943 203.93,-948.3 209.1,-952.32 214.82,-955.37"/>
<polygon fill="#000000" fill-opacity="0.200000" stroke="#000000" stroke-width="2" stroke-opacity="0.200000" points="213.77,-957.2 220.1,-957.73 215.48,-953.37 213.77,-957.2"/>
</g>
</g>
</svg>
